<mxfile host="Electron" modified="2024-07-06T13:55:08.658Z" agent="Mozilla/5.0 (Windows NT 10.0; Win64; x64) AppleWebKit/537.36 (KHTML, like Gecko) draw.io/24.6.4 Chrome/124.0.6367.207 Electron/30.0.6 Safari/537.36" etag="pBxh9F9yh_sxLC959wg-" version="24.6.4" type="device">
  <diagram name="Page-1" id="o5m4nknDyJD5PyooOUcL">
    <mxGraphModel dx="2280" dy="1416" grid="0" gridSize="10" guides="0" tooltips="1" connect="1" arrows="1" fold="1" page="0" pageScale="1" pageWidth="1169" pageHeight="827" math="0" shadow="0">
      <root>
        <mxCell id="0" />
        <mxCell id="1" parent="0" />
        <mxCell id="koq7b_uc5fkDwqh1CZe0-1" value="" style="rounded=1;whiteSpace=wrap;html=1;fillColor=#d5e8d4;strokeColor=#82b366;" parent="1" vertex="1">
          <mxGeometry x="-37" y="408" width="180" height="210" as="geometry" />
        </mxCell>
        <mxCell id="koq7b_uc5fkDwqh1CZe0-2" value="&lt;font style=&quot;font-size: 18px;&quot;&gt;Матчинг клиентов и воркеров&lt;/font&gt;" style="rounded=1;whiteSpace=wrap;html=1;" parent="1" vertex="1">
          <mxGeometry x="-17" y="428" width="140" height="170" as="geometry" />
        </mxCell>
        <mxCell id="koq7b_uc5fkDwqh1CZe0-3" value="" style="rounded=1;whiteSpace=wrap;html=1;fillColor=#d5e8d4;strokeColor=#82b366;" parent="1" vertex="1">
          <mxGeometry x="590" width="180" height="210" as="geometry" />
        </mxCell>
        <mxCell id="koq7b_uc5fkDwqh1CZe0-4" value="&lt;font style=&quot;font-size: 18px;&quot;&gt;Скоринг потенциальных работников&lt;/font&gt;" style="rounded=1;whiteSpace=wrap;html=1;" parent="1" vertex="1">
          <mxGeometry x="610" y="20" width="140" height="170" as="geometry" />
        </mxCell>
        <mxCell id="koq7b_uc5fkDwqh1CZe0-5" value="" style="rounded=1;whiteSpace=wrap;html=1;fillColor=#d5e8d4;strokeColor=#82b366;" parent="1" vertex="1">
          <mxGeometry x="422" y="310" width="511" height="310" as="geometry" />
        </mxCell>
        <mxCell id="koq7b_uc5fkDwqh1CZe0-6" value="&lt;font style=&quot;font-size: 18px;&quot;&gt;Заказы&lt;/font&gt;" style="rounded=1;whiteSpace=wrap;html=1;" parent="1" vertex="1">
          <mxGeometry x="610" y="430" width="140" height="170" as="geometry" />
        </mxCell>
        <mxCell id="koq7b_uc5fkDwqh1CZe0-9" value="" style="rounded=1;whiteSpace=wrap;html=1;fillColor=#d5e8d4;strokeColor=#82b366;" parent="1" vertex="1">
          <mxGeometry x="590" y="840" width="180" height="210" as="geometry" />
        </mxCell>
        <mxCell id="koq7b_uc5fkDwqh1CZe0-10" value="&lt;span style=&quot;font-size: 18px;&quot;&gt;Сборка расходников&lt;br&gt;и&lt;br&gt;заказ печенья&lt;/span&gt;" style="rounded=1;whiteSpace=wrap;html=1;" parent="1" vertex="1">
          <mxGeometry x="610" y="860" width="140" height="170" as="geometry" />
        </mxCell>
        <mxCell id="koq7b_uc5fkDwqh1CZe0-11" value="" style="rounded=1;whiteSpace=wrap;html=1;fillColor=#d5e8d4;strokeColor=#82b366;" parent="1" vertex="1">
          <mxGeometry x="989" y="840" width="180" height="210" as="geometry" />
        </mxCell>
        <mxCell id="koq7b_uc5fkDwqh1CZe0-12" value="&lt;span style=&quot;font-size: 18px;&quot;&gt;Тотализатор&lt;/span&gt;" style="rounded=1;whiteSpace=wrap;html=1;" parent="1" vertex="1">
          <mxGeometry x="1009" y="860" width="140" height="170" as="geometry" />
        </mxCell>
        <mxCell id="koq7b_uc5fkDwqh1CZe0-13" value="" style="rounded=1;whiteSpace=wrap;html=1;fillColor=#d5e8d4;strokeColor=#82b366;" parent="1" vertex="1">
          <mxGeometry x="1243.27" y="360" width="180" height="210" as="geometry" />
        </mxCell>
        <mxCell id="h1AXT6gd8EANJst99X40-7" style="edgeStyle=orthogonalEdgeStyle;rounded=0;orthogonalLoop=1;jettySize=auto;html=1;exitX=1;exitY=0.75;exitDx=0;exitDy=0;entryX=0.5;entryY=1;entryDx=0;entryDy=0;strokeWidth=3;curved=1;" edge="1" parent="1" source="koq7b_uc5fkDwqh1CZe0-14" target="koq7b_uc5fkDwqh1CZe0-39">
          <mxGeometry relative="1" as="geometry" />
        </mxCell>
        <mxCell id="koq7b_uc5fkDwqh1CZe0-14" value="&lt;span style=&quot;font-size: 18px;&quot;&gt;Расчет и&amp;nbsp; списание средств у клиентов&lt;/span&gt;" style="rounded=1;whiteSpace=wrap;html=1;" parent="1" vertex="1">
          <mxGeometry x="1263.27" y="380" width="140" height="170" as="geometry" />
        </mxCell>
        <mxCell id="koq7b_uc5fkDwqh1CZe0-15" style="edgeStyle=orthogonalEdgeStyle;rounded=0;orthogonalLoop=1;jettySize=auto;html=1;exitX=0;exitY=0.5;exitDx=0;exitDy=0;entryX=1;entryY=0.5;entryDx=0;entryDy=0;curved=1;dashed=1;strokeWidth=3;strokeColor=#3333FF;" parent="1" source="koq7b_uc5fkDwqh1CZe0-6" target="koq7b_uc5fkDwqh1CZe0-2" edge="1">
          <mxGeometry relative="1" as="geometry" />
        </mxCell>
        <mxCell id="koq7b_uc5fkDwqh1CZe0-20" style="edgeStyle=orthogonalEdgeStyle;rounded=0;orthogonalLoop=1;jettySize=auto;html=1;exitX=1;exitY=0.5;exitDx=0;exitDy=0;entryX=0;entryY=0.75;entryDx=0;entryDy=0;strokeWidth=3;strokeColor=#FF0000;curved=1;dashed=1;" parent="1" source="koq7b_uc5fkDwqh1CZe0-6" target="koq7b_uc5fkDwqh1CZe0-13" edge="1">
          <mxGeometry relative="1" as="geometry" />
        </mxCell>
        <mxCell id="koq7b_uc5fkDwqh1CZe0-34" value="&lt;font color=&quot;#3333ff&quot; style=&quot;font-size: 18px;&quot;&gt;Бизнес-события о матчинге&lt;/font&gt;" style="text;html=1;align=center;verticalAlign=middle;whiteSpace=wrap;rounded=0;" parent="1" vertex="1">
          <mxGeometry x="194" y="472" width="180" height="30" as="geometry" />
        </mxCell>
        <mxCell id="koq7b_uc5fkDwqh1CZe0-37" value="&lt;span style=&quot;color: rgb(51, 51, 255); font-size: 18px;&quot;&gt;Бизнес-события о сборке заказов и печенье&lt;/span&gt;" style="text;html=1;align=center;verticalAlign=middle;whiteSpace=wrap;rounded=0;" parent="1" vertex="1">
          <mxGeometry x="511" y="680" width="171" height="69" as="geometry" />
        </mxCell>
        <mxCell id="koq7b_uc5fkDwqh1CZe0-39" value="" style="rounded=1;whiteSpace=wrap;html=1;fillColor=#bac8d3;strokeColor=#23445d;" parent="1" vertex="1">
          <mxGeometry x="1547.27" y="181" width="180" height="210" as="geometry" />
        </mxCell>
        <mxCell id="koq7b_uc5fkDwqh1CZe0-40" value="&lt;span style=&quot;font-size: 18px;&quot;&gt;Внешний сервис&lt;br&gt;перевода денег&lt;/span&gt;" style="rounded=1;whiteSpace=wrap;html=1;" parent="1" vertex="1">
          <mxGeometry x="1567.27" y="201" width="140" height="170" as="geometry" />
        </mxCell>
        <mxCell id="koq7b_uc5fkDwqh1CZe0-41" value="" style="rounded=1;whiteSpace=wrap;html=1;fillColor=#bac8d3;strokeColor=#23445d;" parent="1" vertex="1">
          <mxGeometry x="139" y="840" width="180" height="210" as="geometry" />
        </mxCell>
        <mxCell id="koq7b_uc5fkDwqh1CZe0-42" value="&lt;span style=&quot;font-size: 18px;&quot;&gt;Внешний сервис&lt;br&gt;изготовления печенья&lt;/span&gt;" style="rounded=1;whiteSpace=wrap;html=1;" parent="1" vertex="1">
          <mxGeometry x="159" y="860" width="140" height="170" as="geometry" />
        </mxCell>
        <mxCell id="koq7b_uc5fkDwqh1CZe0-43" style="edgeStyle=orthogonalEdgeStyle;rounded=0;orthogonalLoop=1;jettySize=auto;html=1;exitX=0;exitY=0.5;exitDx=0;exitDy=0;strokeWidth=3;" parent="1" source="koq7b_uc5fkDwqh1CZe0-10" target="koq7b_uc5fkDwqh1CZe0-42" edge="1">
          <mxGeometry relative="1" as="geometry" />
        </mxCell>
        <mxCell id="h1AXT6gd8EANJst99X40-1" value="" style="rounded=1;whiteSpace=wrap;html=1;fillColor=#d5e8d4;strokeColor=#82b366;" vertex="1" parent="1">
          <mxGeometry x="1235.27" y="2" width="180" height="210" as="geometry" />
        </mxCell>
        <mxCell id="h1AXT6gd8EANJst99X40-6" style="edgeStyle=orthogonalEdgeStyle;rounded=0;orthogonalLoop=1;jettySize=auto;html=1;exitX=1;exitY=0.25;exitDx=0;exitDy=0;strokeWidth=3;curved=1;entryX=0.5;entryY=0;entryDx=0;entryDy=0;" edge="1" parent="1" source="h1AXT6gd8EANJst99X40-2" target="koq7b_uc5fkDwqh1CZe0-40">
          <mxGeometry relative="1" as="geometry" />
        </mxCell>
        <mxCell id="h1AXT6gd8EANJst99X40-2" value="&lt;span style=&quot;font-size: 18px;&quot;&gt;Расчет и выплаты зп воркерам&lt;/span&gt;" style="rounded=1;whiteSpace=wrap;html=1;" vertex="1" parent="1">
          <mxGeometry x="1255.27" y="22" width="140" height="170" as="geometry" />
        </mxCell>
        <mxCell id="h1AXT6gd8EANJst99X40-4" style="edgeStyle=orthogonalEdgeStyle;rounded=0;orthogonalLoop=1;jettySize=auto;html=1;exitX=1;exitY=0.25;exitDx=0;exitDy=0;entryX=0.25;entryY=1;entryDx=0;entryDy=0;strokeWidth=3;strokeColor=#FF0000;curved=1;dashed=1;" edge="1" parent="1" source="koq7b_uc5fkDwqh1CZe0-6" target="h1AXT6gd8EANJst99X40-2">
          <mxGeometry relative="1" as="geometry">
            <mxPoint x="760" y="525" as="sourcePoint" />
            <mxPoint x="1068" y="526" as="targetPoint" />
          </mxGeometry>
        </mxCell>
        <mxCell id="h1AXT6gd8EANJst99X40-5" value="&lt;font color=&quot;#ff0000&quot; style=&quot;font-size: 18px;&quot;&gt;Стриминг заказов&lt;/font&gt;" style="edgeLabel;html=1;align=center;verticalAlign=middle;resizable=0;points=[];" vertex="1" connectable="0" parent="h1AXT6gd8EANJst99X40-4">
          <mxGeometry x="-0.2218" y="62" relative="1" as="geometry">
            <mxPoint x="164" y="-118" as="offset" />
          </mxGeometry>
        </mxCell>
        <mxCell id="koq7b_uc5fkDwqh1CZe0-18" style="edgeStyle=orthogonalEdgeStyle;rounded=0;orthogonalLoop=1;jettySize=auto;html=1;exitX=1;exitY=0.5;exitDx=0;exitDy=0;entryX=0;entryY=0.5;entryDx=0;entryDy=0;strokeColor=#FF0000;dashed=1;curved=1;strokeWidth=3;" parent="1" source="koq7b_uc5fkDwqh1CZe0-4" target="h1AXT6gd8EANJst99X40-2" edge="1">
          <mxGeometry relative="1" as="geometry" />
        </mxCell>
        <mxCell id="koq7b_uc5fkDwqh1CZe0-29" value="&lt;font color=&quot;#ff0000&quot; style=&quot;font-size: 18px;&quot;&gt;Стриминг воркеров&lt;/font&gt;" style="edgeLabel;html=1;align=center;verticalAlign=middle;resizable=0;points=[];" parent="koq7b_uc5fkDwqh1CZe0-18" vertex="1" connectable="0">
          <mxGeometry x="-0.2278" y="-2" relative="1" as="geometry">
            <mxPoint x="59" y="-19" as="offset" />
          </mxGeometry>
        </mxCell>
        <mxCell id="h1AXT6gd8EANJst99X40-10" value="" style="endArrow=classic;html=1;rounded=0;strokeWidth=3;dashed=1;" edge="1" parent="1">
          <mxGeometry width="50" height="50" relative="1" as="geometry">
            <mxPoint x="-41" y="40" as="sourcePoint" />
            <mxPoint x="113" y="40" as="targetPoint" />
          </mxGeometry>
        </mxCell>
        <mxCell id="h1AXT6gd8EANJst99X40-12" value="&lt;font style=&quot;font-size: 18px;&quot;&gt;Async&lt;/font&gt;" style="edgeLabel;html=1;align=center;verticalAlign=middle;resizable=0;points=[];" vertex="1" connectable="0" parent="h1AXT6gd8EANJst99X40-10">
          <mxGeometry x="-0.1948" y="2" relative="1" as="geometry">
            <mxPoint y="-16" as="offset" />
          </mxGeometry>
        </mxCell>
        <mxCell id="h1AXT6gd8EANJst99X40-11" value="" style="endArrow=classic;html=1;rounded=0;strokeWidth=3;" edge="1" parent="1">
          <mxGeometry width="50" height="50" relative="1" as="geometry">
            <mxPoint x="-42" y="89" as="sourcePoint" />
            <mxPoint x="112" y="89" as="targetPoint" />
          </mxGeometry>
        </mxCell>
        <mxCell id="h1AXT6gd8EANJst99X40-14" value="&lt;font style=&quot;font-size: 18px;&quot;&gt;Sync&lt;/font&gt;" style="edgeLabel;html=1;align=center;verticalAlign=middle;resizable=0;points=[];" vertex="1" connectable="0" parent="1">
          <mxGeometry x="26.003076923076918" y="13" as="geometry">
            <mxPoint x="-3" y="61" as="offset" />
          </mxGeometry>
        </mxCell>
        <mxCell id="h1AXT6gd8EANJst99X40-15" value="&lt;font style=&quot;font-size: 18px;&quot;&gt;Сервис&lt;/font&gt;" style="text;html=1;align=center;verticalAlign=middle;resizable=0;points=[];autosize=1;strokeColor=none;fillColor=none;" vertex="1" parent="1">
          <mxGeometry x="636" y="-9" width="80" height="34" as="geometry" />
        </mxCell>
        <mxCell id="h1AXT6gd8EANJst99X40-16" value="&lt;font style=&quot;font-size: 18px;&quot;&gt;Сервис&lt;/font&gt;" style="text;html=1;align=center;verticalAlign=middle;resizable=0;points=[];autosize=1;strokeColor=none;fillColor=none;" vertex="1" parent="1">
          <mxGeometry x="1283.27" y="-6" width="80" height="34" as="geometry" />
        </mxCell>
        <mxCell id="h1AXT6gd8EANJst99X40-17" value="&lt;font style=&quot;font-size: 18px;&quot;&gt;Сервис&lt;/font&gt;" style="text;html=1;align=center;verticalAlign=middle;resizable=0;points=[];autosize=1;strokeColor=none;fillColor=none;" vertex="1" parent="1">
          <mxGeometry x="1290.27" y="352" width="80" height="34" as="geometry" />
        </mxCell>
        <mxCell id="h1AXT6gd8EANJst99X40-18" value="&lt;font style=&quot;font-size: 18px;&quot;&gt;Сервис&lt;/font&gt;" style="text;html=1;align=center;verticalAlign=middle;resizable=0;points=[];autosize=1;strokeColor=none;fillColor=none;" vertex="1" parent="1">
          <mxGeometry x="1035" y="832" width="80" height="34" as="geometry" />
        </mxCell>
        <mxCell id="h1AXT6gd8EANJst99X40-19" value="&lt;font style=&quot;font-size: 18px;&quot;&gt;Сервис&lt;/font&gt;" style="text;html=1;align=center;verticalAlign=middle;resizable=0;points=[];autosize=1;strokeColor=none;fillColor=none;" vertex="1" parent="1">
          <mxGeometry x="639" y="833" width="80" height="34" as="geometry" />
        </mxCell>
        <mxCell id="h1AXT6gd8EANJst99X40-20" value="&lt;font style=&quot;font-size: 18px;&quot;&gt;Сервис&lt;/font&gt;" style="text;html=1;align=center;verticalAlign=middle;resizable=0;points=[];autosize=1;strokeColor=none;fillColor=none;" vertex="1" parent="1">
          <mxGeometry x="11" y="401" width="80" height="34" as="geometry" />
        </mxCell>
        <mxCell id="h1AXT6gd8EANJst99X40-25" value="&lt;font style=&quot;font-size: 18px;&quot;&gt;Сервис&lt;/font&gt;" style="text;html=1;align=center;verticalAlign=middle;resizable=0;points=[];autosize=1;strokeColor=none;fillColor=none;" vertex="1" parent="1">
          <mxGeometry x="639" y="304" width="80" height="34" as="geometry" />
        </mxCell>
        <mxCell id="koq7b_uc5fkDwqh1CZe0-16" style="edgeStyle=orthogonalEdgeStyle;rounded=0;orthogonalLoop=1;jettySize=auto;html=1;exitX=0;exitY=0.5;exitDx=0;exitDy=0;strokeWidth=3;strokeColor=#FF0000;curved=1;dashed=1;entryX=0.5;entryY=0;entryDx=0;entryDy=0;" parent="1" source="koq7b_uc5fkDwqh1CZe0-4" target="koq7b_uc5fkDwqh1CZe0-2" edge="1">
          <mxGeometry relative="1" as="geometry">
            <mxPoint x="210" y="63" as="targetPoint" />
          </mxGeometry>
        </mxCell>
        <mxCell id="koq7b_uc5fkDwqh1CZe0-32" value="&lt;span style=&quot;color: rgb(255, 0, 0); font-size: 18px;&quot;&gt;Стриминг воркеров&lt;/span&gt;" style="edgeLabel;html=1;align=center;verticalAlign=middle;resizable=0;points=[];" parent="koq7b_uc5fkDwqh1CZe0-16" vertex="1" connectable="0">
          <mxGeometry x="0.3134" y="46" relative="1" as="geometry">
            <mxPoint x="58" y="116" as="offset" />
          </mxGeometry>
        </mxCell>
        <mxCell id="koq7b_uc5fkDwqh1CZe0-19" style="edgeStyle=orthogonalEdgeStyle;rounded=0;orthogonalLoop=1;jettySize=auto;html=1;exitX=0.5;exitY=1;exitDx=0;exitDy=0;strokeColor=#FF0000;strokeWidth=3;curved=1;dashed=1;" parent="1" source="koq7b_uc5fkDwqh1CZe0-4" target="koq7b_uc5fkDwqh1CZe0-6" edge="1">
          <mxGeometry relative="1" as="geometry" />
        </mxCell>
        <mxCell id="koq7b_uc5fkDwqh1CZe0-30" value="&lt;font color=&quot;#ff0000&quot; style=&quot;font-size: 18px;&quot;&gt;Стриминг воркеров&lt;/font&gt;" style="edgeLabel;html=1;align=center;verticalAlign=middle;resizable=0;points=[];" parent="koq7b_uc5fkDwqh1CZe0-19" vertex="1" connectable="0">
          <mxGeometry x="-0.1278" y="-2" relative="1" as="geometry">
            <mxPoint x="-3" y="-37" as="offset" />
          </mxGeometry>
        </mxCell>
        <mxCell id="koq7b_uc5fkDwqh1CZe0-25" style="edgeStyle=orthogonalEdgeStyle;rounded=0;orthogonalLoop=1;jettySize=auto;html=1;exitX=0.5;exitY=1;exitDx=0;exitDy=0;entryX=0.548;entryY=0.96;entryDx=0;entryDy=0;strokeColor=#3333FF;dashed=1;strokeWidth=3;curved=1;entryPerimeter=0;" parent="1" source="koq7b_uc5fkDwqh1CZe0-6" target="h1AXT6gd8EANJst99X40-19" edge="1">
          <mxGeometry relative="1" as="geometry" />
        </mxCell>
        <mxCell id="koq7b_uc5fkDwqh1CZe0-24" style="edgeStyle=orthogonalEdgeStyle;rounded=0;orthogonalLoop=1;jettySize=auto;html=1;exitX=1;exitY=0.75;exitDx=0;exitDy=0;entryX=0.5;entryY=0;entryDx=0;entryDy=0;strokeColor=#FF0000;strokeWidth=3;dashed=1;curved=1;" parent="1" source="koq7b_uc5fkDwqh1CZe0-6" target="koq7b_uc5fkDwqh1CZe0-12" edge="1">
          <mxGeometry relative="1" as="geometry" />
        </mxCell>
        <mxCell id="koq7b_uc5fkDwqh1CZe0-27" value="&lt;font color=&quot;#ff0000&quot; style=&quot;font-size: 18px;&quot;&gt;Стриминг заказов&lt;/font&gt;" style="edgeLabel;html=1;align=center;verticalAlign=middle;resizable=0;points=[];" parent="koq7b_uc5fkDwqh1CZe0-24" vertex="1" connectable="0">
          <mxGeometry x="-0.261" y="-67" relative="1" as="geometry">
            <mxPoint x="59" y="82" as="offset" />
          </mxGeometry>
        </mxCell>
        <mxCell id="h1AXT6gd8EANJst99X40-26" value="&lt;font style=&quot;font-size: 18px;&quot;&gt;Контроль качества&lt;/font&gt;" style="rounded=1;whiteSpace=wrap;html=1;" vertex="1" parent="1">
          <mxGeometry x="770" y="347" width="140" height="88" as="geometry" />
        </mxCell>
        <mxCell id="h1AXT6gd8EANJst99X40-27" value="&lt;span style=&quot;font-size: 18px;&quot;&gt;Миграция из HCB&lt;/span&gt;" style="rounded=1;whiteSpace=wrap;html=1;" vertex="1" parent="1">
          <mxGeometry x="444" y="349" width="140" height="88" as="geometry" />
        </mxCell>
        <mxCell id="h1AXT6gd8EANJst99X40-30" value="&lt;span style=&quot;color: rgb(255, 0, 0); font-family: Helvetica; font-size: 18px; font-style: normal; font-variant-ligatures: normal; font-variant-caps: normal; font-weight: 400; letter-spacing: normal; orphans: 2; text-align: center; text-indent: 0px; text-transform: none; widows: 2; word-spacing: 0px; -webkit-text-stroke-width: 0px; white-space: nowrap; text-decoration-thickness: initial; text-decoration-style: initial; text-decoration-color: initial; float: none; display: inline !important;&quot;&gt;Стриминг заказов и клиентов&lt;/span&gt;" style="text;whiteSpace=wrap;html=1;" vertex="1" parent="1">
          <mxGeometry x="963.9955426290765" y="486.0039130434785" width="273" height="44" as="geometry" />
        </mxCell>
        <mxCell id="h1AXT6gd8EANJst99X40-33" value="&lt;font style=&quot;font-size: 18px;&quot;&gt;Pipeline&lt;/font&gt;" style="rounded=0;whiteSpace=wrap;html=1;fillColor=#fff2cc;strokeColor=#d6b656;" vertex="1" parent="1">
          <mxGeometry x="-69" y="609" width="120" height="60" as="geometry" />
        </mxCell>
        <mxCell id="h1AXT6gd8EANJst99X40-35" value="&lt;font style=&quot;font-size: 18px;&quot;&gt;Microkernel&lt;/font&gt;" style="rounded=0;whiteSpace=wrap;html=1;fillColor=#fff2cc;strokeColor=#d6b656;" vertex="1" parent="1">
          <mxGeometry x="474" y="170" width="120" height="60" as="geometry" />
        </mxCell>
        <mxCell id="h1AXT6gd8EANJst99X40-36" value="&lt;font style=&quot;font-size: 18px;&quot;&gt;Layered&lt;/font&gt;" style="rounded=0;whiteSpace=wrap;html=1;fillColor=#fff2cc;strokeColor=#d6b656;" vertex="1" parent="1">
          <mxGeometry x="862" y="993" width="120" height="60" as="geometry" />
        </mxCell>
        <mxCell id="h1AXT6gd8EANJst99X40-37" value="&lt;font style=&quot;font-size: 18px;&quot;&gt;Layered&lt;/font&gt;" style="rounded=0;whiteSpace=wrap;html=1;fillColor=#fff2cc;strokeColor=#d6b656;" vertex="1" parent="1">
          <mxGeometry x="465" y="982" width="120" height="60" as="geometry" />
        </mxCell>
        <mxCell id="h1AXT6gd8EANJst99X40-39" value="&lt;span style=&quot;font-size: 18px;&quot;&gt;Modular&lt;br&gt;&lt;/span&gt;&lt;font style=&quot;font-size: 18px;&quot;&gt;Layered&lt;/font&gt;" style="rounded=0;whiteSpace=wrap;html=1;fillColor=#fff2cc;strokeColor=#d6b656;" vertex="1" parent="1">
          <mxGeometry x="1118" y="159" width="120" height="60" as="geometry" />
        </mxCell>
        <mxCell id="h1AXT6gd8EANJst99X40-40" value="&lt;span style=&quot;font-size: 18px;&quot;&gt;Modular&lt;br&gt;&lt;/span&gt;&lt;font style=&quot;font-size: 18px;&quot;&gt;Layered&lt;/font&gt;" style="rounded=0;whiteSpace=wrap;html=1;fillColor=#fff2cc;strokeColor=#d6b656;" vertex="1" parent="1">
          <mxGeometry x="1178" y="567" width="120" height="60" as="geometry" />
        </mxCell>
        <mxCell id="h1AXT6gd8EANJst99X40-41" value="&lt;span style=&quot;font-size: 18px;&quot;&gt;Modular&lt;br&gt;&lt;/span&gt;&lt;font style=&quot;font-size: 18px;&quot;&gt;Layered&lt;/font&gt;" style="rounded=0;whiteSpace=wrap;html=1;fillColor=#fff2cc;strokeColor=#d6b656;" vertex="1" parent="1">
          <mxGeometry x="346" y="612" width="120" height="60" as="geometry" />
        </mxCell>
      </root>
    </mxGraphModel>
  </diagram>
</mxfile>
